<svg height="512" viewBox="0 0 512 512" width="512" xmlns="http://www.w3.org/2000/svg"><g><g><path d="m104 16h384v24h-384z" fill="#787680"/><path d="m148.66 320h303.34a19.994 19.994 0 0 0 20-20v-260h-352v184.85" fill="#78b9eb"/><circle cx="296" cy="376" fill="#e0e0e2" r="16"/><g><path d="m128 368h32a40 40 0 0 1 40 40v88h-176v-88a40 40 0 0 1 40-40h32" fill="#006df0"/><path d="m150.89 263.55c-47.38 23.33-78.89 15.45-78.89 15.45v-7a40.015 40.015 0 0 1 40-40 39.305 39.305 0 0 1 28.28 12.22 41.7 41.7 0 0 1 10.53 19.02c.03.1.06.21.08.31z" fill="#ff9811"/><g fill="#ffdaaa"><path d="m152 273v31a40 40 0 0 1 -80 0v-25s31.51 7.88 78.89-15.45a40.59 40.59 0 0 1 1.11 9.45z"/><path d="m128 344v16a16 16 0 0 1 -32 0v-16z"/></g></g><g fill="#ffda44"><path d="m272 168h48v112h-48z"/><path d="m192 200h48v80h-48z"/><path d="m352 136h48v144h-48z"/></g></g><g><path d="m488 8h-384a8 8 0 0 0 -8 8v24a8 8 0 0 0 8 8h8v168a48.051 48.051 0 0 0 -48 48v40a48.012 48.012 0 0 0 24 41.54v14.46h-24a48.051 48.051 0 0 0 -48 48v88a8 8 0 0 0 8 8h176a8 8 0 0 0 8-8v-88a48.051 48.051 0 0 0 -48-48h-24v-14.46a48.206 48.206 0 0 0 17.54-17.54h134.46v25.38a24 24 0 1 0 16 0v-25.38h148a28.031 28.031 0 0 0 28-28v-252h8a8 8 0 0 0 8-8v-24a8 8 0 0 0 -8-8zm-408 256a32.036 32.036 0 0 1 32-32c12.65 0 23.86 8.04 29.01 19.34-19.84 8.84-36.12 11.77-46.71 12.62a90.9 90.9 0 0 1 -14.3.07zm80 112a32.036 32.036 0 0 1 32 32v80h-16v-72a8 8 0 0 0 -16 0v72h-96v-72a8 8 0 0 0 -16 0v72h-16v-80a32.036 32.036 0 0 1 32-32h25.38a23.99 23.99 0 0 0 45.24 0zm-56-8v-16.68a47.4 47.4 0 0 0 16 0v16.68a8 8 0 0 1 -16 0zm40-64a32 32 0 0 1 -64 0v-23.92c1.88.12 3.99.2 6.35.2 12.94 0 32.94-2.34 57.65-12.79zm152 80a8 8 0 1 1 8-8 8.011 8.011 0 0 1 -8 8zm168-84a12.01 12.01 0 0 1 -12 12h-292.68a47.891 47.891 0 0 0 .68-8v-40c0-.23-.01-.45-.03-.68a49.189 49.189 0 0 0 -13.93-32.66 48.206 48.206 0 0 0 -18.04-11.83v-170.83h336zm16-268h-368v-8h368z"/><path d="m320 160h-48a8 8 0 0 0 -8 8v112a8 8 0 0 0 8 8h48a8 8 0 0 0 8-8v-112a8 8 0 0 0 -8-8zm-8 112h-32v-96h32z"/><path d="m240 192h-48a8 8 0 0 0 -8 8v80a8 8 0 0 0 8 8h48a8 8 0 0 0 8-8v-80a8 8 0 0 0 -8-8zm-8 80h-32v-64h32z"/><path d="m400 128h-48a8 8 0 0 0 -8 8v144a8 8 0 0 0 8 8h48a8 8 0 0 0 8-8v-144a8 8 0 0 0 -8-8zm-8 144h-32v-128h32z"/><path d="m184.007 144a7.957 7.957 0 0 0 3.878-1.008l60.115-33.392v18.4a8 8 0 0 0 12.116 6.86l67.884-40.73v17.87a8 8 0 0 0 12.437 6.656l72-48a8 8 0 0 0 -8.876-13.312l-59.561 39.708v-17.052a8 8 0 0 0 -12.116-6.86l-67.884 40.73v-17.87a8 8 0 0 0 -11.885-6.993l-72 40a8 8 0 0 0 3.892 14.993z"/></g></g></svg>