<svg id="Capa_1" enable-background="new 0 0 512 512" height="512" viewBox="0 0 512 512" width="512" xmlns="http://www.w3.org/2000/svg"><g><path d="m61 150h-30v120h30v30h30v-30h30v-120h-30v-30h-30zm30 90h-30v-60h30z"/><path d="m211 240v-30h30v-120h-30v-30h-30v30h-30v120h30v30zm-30-120h30v60h-30z"/><path d="m331 210v-30h30v-120h-30v-30h-30v30h-30v120h30v30zm-30-120h30v60h-30z"/><path d="m451 180v-30h30v-120h-30v-30h-30v30h-30v120h30v30zm-30-120h30v60h-30z"/><path d="m16 360h123.541l120-60h120l81.58-40.79-6.039 25.844 29.213 6.827 16.149-69.103-64.971-28.543-12.067 27.467 24.299 10.675-75.246 37.623h-120l-120 60h-116.459z"/><path d="m481 330h-90v152h-30v-152h-90v152h-30v-131.271l-90 45v86.271h-30v-92h-90v92h-31v30h512v-30h-31zm-60 30h30v122h-30zm-120 0h30v122h-30zm-120 54.271 30-15v82.729h-30zm-120 5.729h30v62h-30z"/></g></svg>